<svg width="500" height="500" version="1.1" xmlns="http://www.w3.org/2000/svg" desc="Created with https://tools.webdevpuneet.com/image-to-svg-converter/"><path fill="rgb(0,0,0)" stroke="rgb(0,0,0)" stroke-width="0" opacity="0.043137254901960784" d="M 0 0 L 500 0 L 500 469 L 494 464.5 Q 494.8 462.3 492.5 463 L 447.5 440 L 437.5 437 L 394.5 418 L 367.5 408 L 339.5 395 L 334.5 391 L 329.5 390 L 327 387.5 L 323 369.5 L 322 333.5 Q 324.8 331.8 323 325.5 L 330 301.5 Q 330.9 294.9 335.5 292 Q 342.6 291.1 345 285.5 L 350 273.5 L 352 259.5 L 351 258.5 Q 352.4 249.6 350 244.5 Q 353.4 239.4 352 229.5 L 346.5 222 L 345 221.5 L 350 208.5 L 353 187.5 L 358 172.5 L 358 162.5 L 359 161.5 L 359 150.5 L 360 148.5 L 359 145.5 L 360 141.5 L 355 122.5 L 355 116.5 L 352.5 110 L 352 113.5 Q 354.5 115 353 120.5 L 352 120.5 L 351.5 119 L 347.5 120 L 342 115.5 L 340 110.5 L 340.5 109 L 337 107.5 L 335.5 105 L 333 103.5 L 334 100 L 336 99.5 L 332.5 98 L 328.5 101 L 321.5 98 L 319.5 98 L 307 97 L 308.5 94 L 312.5 92 L 315.5 93 L 322 89.5 L 318 87.5 L 317 84.5 Q 319.8 83.7 319 79.5 L 313.5 77 L 309.5 79 L 300 79.5 L 302 80 L 304.5 85 Q 308.9 83.5 308 86.5 L 309 87.5 L 305 91.5 Q 305.8 93.8 303.5 93 L 303.5 94 L 306 95.5 L 301.5 96 L 299.5 95 L 300.5 98 L 297.5 97 L 296 97.5 L 296.5 96 L 295 95.5 L 296 93.5 L 293 94.5 L 296 89.5 L 292.5 88 L 291 88.5 L 291.5 87 Q 289.3 87.8 290 85.5 L 292 82.5 L 285 77.5 L 287.5 75 L 295 75 L 296 71.5 L 295.5 69 L 289.5 66 L 288 69 L 280.5 70 L 280.5 67 L 283.5 68 L 285 63 L 280 64 Q 281.1 66.7 278.5 66 L 279 67.5 Q 280.1 70.8 277.5 70 L 272.5 72 L 271 71.5 Q 271.8 74.1 268.5 73 Q 264.6 69.9 257 70.5 L 257.5 68 L 260.5 69 L 262.5 69 L 264.5 68 L 273.5 70 L 277 67.5 L 272 67 Q 270.9 64.3 273.5 65 L 278 62.5 L 276.5 62 L 271.5 64 L 263 62 L 262.5 57 L 259.5 58 L 254 56 L 254 51 L 250.5 51 L 251.5 49 Q 255.8 48.3 256.5 51 L 258 50.5 Q 257.3 52.8 259.5 52 L 261.5 53 L 265 51.5 L 264.5 50 L 268 49.5 L 260.5 46 L 250.5 45 L 249.5 46 L 235.5 46 L 229.5 48 L 223.5 48 L 220.5 50 L 211.5 51 L 201.5 55 L 193.5 56 L 164 73.5 L 161.5 77 L 155 80.5 L 155.5 82 Q 164.6 78.1 170.5 71 L 170.5 73 L 182.5 68 L 186.5 68 Q 189.3 73.4 192 71.5 L 191.5 73 L 199.5 72 L 199.5 73 L 198 73.5 L 203.5 78 L 207.5 75 L 208 77 L 203 79.5 Q 203.7 82.1 201 81 L 201 83 L 198.5 83 L 198.5 84 L 206.5 86 L 216 95.5 Q 216.8 97.8 214.5 97 L 210.5 100 L 208.5 100 L 205 102.5 Q 206.5 108.5 203.5 110 Q 195.5 112 193.5 108 L 191.5 111 L 183.5 110 L 181.5 108 L 178.5 110 Q 177.1 107.4 172.5 108 L 171 110.5 L 171.5 112 Q 170 109.5 168.5 113 L 167 113.5 L 167 115.5 L 165.5 118 L 162 119 Q 163 123.7 159.5 125 L 147.5 126 L 146.5 127 Q 144.8 124.2 143 128.5 L 142 133 L 140 133.5 L 141 137 L 143.5 136 Q 145.8 136.8 145 140.5 L 141 150.5 Q 143.3 151.8 142 156.5 L 141 157.5 L 140 171.5 L 142 173.5 L 143 178.5 L 141 183 Q 138 181.8 139 185.5 L 140 188.5 L 138 187.5 L 137 179.5 L 138 177.5 L 136 177.5 L 136 175.5 L 136.5 173 L 138 173.5 L 137.5 171 L 136 171.5 L 135 162.5 L 136 161.5 L 136 147.5 L 139 143.5 L 139 138.5 L 136.5 140 Q 133.9 140.8 135 137.5 L 134 137.5 L 135 156.5 L 134 157.5 Q 135.5 169 133 176.5 L 136 181.5 Q 134.8 188.2 138 190.5 L 141 216 L 138 217.5 L 133 228.5 L 133 249.5 L 135 257.5 L 135 264.5 L 138 275.5 L 146.5 286 L 153 288 Q 159.3 315 171 337.5 L 172 358.5 L 173 359.5 L 173 379.5 L 170.5 385 L 152.5 396 L 143.5 398 L 136.5 403 L 102.5 415 L 91.5 422 L 75.5 427 Q 58.6 437.1 38.5 444 L 20.5 453 L 0.5 466 L 0 0 Z M 283 54 Q 282 56 286 55 L 288 59 L 291 57 Q 296 55 295 59 L 305 60 L 308 62 L 311 62 L 302 55 L 283 54 Z M 320 68 L 320 71 L 316 73 Q 319 77 328 77 L 331 80 L 332 80 L 328 74 L 320 68 Z M 190 76 L 186 78 L 185 80 L 192 77 L 190 76 Z M 336 84 Q 335 88 339 91 Q 338 93 341 92 L 347 100 L 351 110 L 352 110 L 352 107 L 348 99 L 336 84 Z M 149 87 L 145 92 L 147 92 L 150 91 L 149 87 Z M 160 87 L 154 100 L 155 102 L 156 98 L 162 96 L 161 95 L 164 90 L 163 89 L 161 89 L 160 87 Z M 145 92 L 142 95 Q 143 97 140 96 L 142 105 L 143 99 Q 142 94 145 95 L 145 92 Z M 153 104 L 153 106 Q 149 107 152 109 L 151 113 L 152 116 L 154 115 Q 157 116 156 114 L 156 112 L 158 113 Q 159 109 156 107 Q 157 102 153 104 Z M 146 113 L 145 116 L 142 120 L 145 119 L 146 117 L 146 113 Z "></path><path fill="rgb(0,0,0)" stroke="rgb(0,0,0)" stroke-width="0" opacity="0.043137254901960784" d="M 241 47 L 249 47.5 L 246 51.5 L 248 52 L 250.5 57 Q 253.1 56.2 252 59.5 L 247.5 63 L 244 63 L 245 59.5 L 241.5 58 L 239.5 59 L 241.5 55 L 220.5 63 L 214 63 Q 215 66 212 65 L 213.5 62 L 223 60 L 225.5 56 L 230.5 54 Q 231.7 56.3 233 53.5 L 232 49.5 L 235.5 48 L 235.5 50 L 240 51 L 241 47 Z "></path><path fill="rgb(0,0,0)" stroke="rgb(0,0,0)" stroke-width="0" opacity="0.043137254901960784" d="M 209.5 56 L 209 57.5 Q 209.8 60.1 206.5 59 L 203.5 60 L 203.5 59 L 209.5 56 Z "></path><path fill="rgb(0,0,0)" stroke="rgb(0,0,0)" stroke-width="0" opacity="0.043137254901960784" d="M 193.5 58 L 198 58.5 L 195 60.5 L 193.5 63 L 187 65.5 Q 187.8 67.8 185.5 67 L 183.5 67 L 181 66.5 L 183 66 Q 181.9 63.3 184.5 64 L 193.5 58 Z "></path><path fill="rgb(0,0,0)" stroke="rgb(0,0,0)" stroke-width="0" opacity="0.043137254901960784" d="M 221.5 71 L 223 71.5 L 220.5 75 L 218.5 74 L 219 75.5 L 220.5 78 L 227 77 L 227.5 75 Q 229.3 78.1 231 76.5 L 228 82.5 L 231.5 80 L 232.5 81 L 235 78.5 L 235.5 77 Q 237 79.5 238.5 76 L 241.5 75 L 242 77 L 235 80 L 231.5 85 L 230 85 L 230 89 L 236 88 Q 234.9 85.3 237.5 86 L 240 82.5 L 239.5 81 L 242.5 79 L 243.5 81 L 246 80 L 248.5 76 L 251.5 75 L 252 78 Q 246.9 78.5 244.5 83 L 241.5 81 L 242 82.5 Q 242.6 87.1 240 88.5 L 244 88.5 L 243 94 L 235.5 98 L 233.5 95 L 229.5 94 L 226.5 96 L 224.5 95 L 219.5 97 L 218 94.5 Q 220.5 93 217 91.5 L 212.5 85 Q 207.3 86.3 206 83.5 L 207 80 L 214 76.5 Q 213.3 74.3 215.5 75 L 221.5 71 Z "></path><path fill="rgb(0,0,0)" stroke="rgb(0,0,0)" stroke-width="0" opacity="0.043137254901960784" d="M 259.5 73 L 262 74.5 L 262.5 76 L 263 74 L 266 74.5 Q 264.8 77.8 261 77 Q 262.1 73.5 254.5 75 L 254.5 74 L 259.5 73 Z "></path><path fill="rgb(0,0,0)" stroke="rgb(0,0,0)" stroke-width="0" opacity="0.043137254901960784" d="M 272 77 L 275 77.5 L 263.5 85 L 267 80.5 L 267.5 79 L 269.5 80 L 272 79 L 272 77 Z "></path><path fill="rgb(0,0,0)" stroke="rgb(0,0,0)" stroke-width="0" opacity="0.043137254901960784" d="M 259.5 80 L 261 81.5 L 257.5 85 L 249 92.5 L 248.5 94 L 248 91.5 L 250 88 L 252 88 L 252 86 Q 254.7 87.1 254 84.5 L 259.5 80 Z "></path><path fill="rgb(0,0,0)" stroke="rgb(0,0,0)" stroke-width="0" opacity="0.043137254901960784" d="M 267.5 87 L 267.5 89 L 270.5 87 L 270.5 90 Q 264.5 90 262.5 94 Q 261.2 91.8 260 94.5 Q 257.4 95.9 258 100.5 L 259 103.5 L 254.5 107 Q 256.2 104.7 252 102.5 Q 250.5 98.1 253.5 99 L 253.5 98 Q 251.3 98.8 252 96.5 L 258 91.5 L 260.5 88 L 265.5 89 L 267.5 87 Z "></path><path fill="rgb(0,0,0)" stroke="rgb(0,0,0)" stroke-width="0" opacity="0.043137254901960784" d="M 278.5 90 L 278 91.5 Q 279.1 94.8 276.5 94 L 269 99 Q 270.1 101.7 267.5 101 L 264.5 103 L 267.5 99 L 274 94.5 L 273.5 93 L 278.5 90 Z "></path><path fill="rgb(0,0,0)" stroke="rgb(0,0,0)" stroke-width="0" opacity="0.043137254901960784" d="M 287.5 92 L 288.5 94 L 289.5 92 L 290 93.5 L 287.5 97 L 286.5 96 L 282 98.5 Q 282.8 100.8 280.5 100 L 278 101.5 Q 280.3 102.7 277.5 104 L 276 103.5 L 273.5 107 L 271 105.5 L 276 102.5 L 274.5 102 L 272.5 103 L 273.5 101 L 275 100.5 L 274.5 99 Q 276 101.5 277.5 98 L 281 97 Q 279.9 94.3 282.5 95 L 284.5 95 L 288 94.5 L 285 93.5 L 287.5 92 Z "></path><path fill="rgb(0,0,0)" stroke="rgb(0,0,0)" stroke-width="0" opacity="0.043137254901960784" d="M 328 102 L 332 103.5 L 333 105.5 L 331.5 106 L 329.5 105 L 330.5 107 L 332 107.5 L 330.5 108 Q 327 106.7 328 102 Z "></path><path fill="rgb(0,0,0)" stroke="rgb(0,0,0)" stroke-width="0" opacity="0.043137254901960784" d="M 288.5 103 L 289 105 L 283 107.5 L 283.5 109 L 282 108.5 L 281.5 110 Q 278.5 108.5 281.5 107 L 288.5 103 Z "></path><path fill="rgb(0,0,0)" stroke="rgb(0,0,0)" stroke-width="0" opacity="0.043137254901960784" d="M 313.5 105 L 325 108 Q 325.8 111.4 323 112.5 L 331 117.5 L 328.5 122 L 327 122.5 L 328 125 Q 332.7 125.5 335 129.5 L 335 134.5 L 340 141.5 L 341 147.5 L 338.5 151 L 334.5 150 L 322 138.5 L 323 132.5 L 318 126.5 L 323 122.5 L 321 122 L 319 118.5 L 318 111 L 312 108.5 Q 315.1 106.7 313.5 105 Z "></path><path fill="rgb(0,0,0)" stroke="rgb(0,0,0)" stroke-width="0" opacity="0.043137254901960784" d="M 306.5 107 L 310 109.5 L 307.5 110 L 304.5 109 L 300.5 111 L 298.5 110 L 297 110.5 Q 296.1 107.5 300.5 109 L 306.5 107 Z "></path><path fill="rgb(0,0,0)" stroke="rgb(0,0,0)" stroke-width="0" opacity="0.043137254901960784" d="M 332.5 155 L 334.5 156 Q 335.8 153.8 337 156.5 L 337 158.5 L 336 161.5 L 336.5 163 L 335 163.5 Q 337.5 165 336 170.5 L 334 171.5 L 332 160.5 L 332.5 155 Z "></path><path fill="rgb(0,0,0)" stroke="rgb(0,0,0)" stroke-width="0" opacity="0.043137254901960784" d="M 140.5 191 L 143 197.5 L 142 200.5 L 143 206.5 L 142 206.5 L 141 203.5 L 141 201.5 L 140.5 191 Z "></path><path fill="rgb(0,0,0)" stroke="rgb(0,0,0)" stroke-width="0" opacity="0.043137254901960784" d="M 347.5 203 L 348 211 Q 344.7 209.7 346 214.5 L 344.5 217 Q 341.8 215.8 344 214.5 L 347.5 203 Z "></path><path fill="rgb(0,0,0)" stroke="rgb(0,0,0)" stroke-width="0" opacity="0.043137254901960784" d="M 193.5 212 Q 198.9 210.1 198 213.5 L 200 216.5 L 197 217 L 196.5 213 Q 195 216.5 193.5 214 L 192 213.5 L 193.5 212 Z "></path><path fill="rgb(118,97,90)" stroke="rgb(118,97,90)" stroke-width="0" opacity="0.9921568627450981" d="M 250.5 45 L 260.5 46 L 272 50.5 L 268.5 51 L 264.5 50 L 264.5 52 L 260.5 53 L 258 52 L 257.5 50 Q 256 52.5 254.5 49 Q 250.8 48.3 250 50.5 L 254 51 L 254 56 L 255.5 56 L 261.5 58 L 263 57.5 Q 261.1 62.9 264.5 62 L 272.5 64 L 277.5 62 L 276.5 64 L 272 65 Q 270.6 68.7 276.5 67 L 276.5 68 L 269.5 71 L 269.5 69 L 264.5 68 L 262.5 69 L 259.5 68 L 257 68.5 L 257.5 71 L 264.5 71 L 271 73 L 271.5 71 L 274.5 72 L 279 70 L 278 66.5 L 280 66 Q 278.9 63.3 281.5 64 L 285 63 L 283.5 68 L 280.5 67 L 280.5 70 L 288 69 L 289.5 66 L 296 69.5 L 296 71.5 L 295 75 L 301 76.5 L 299.5 77 Q 295.5 74 287.5 75 L 285.5 78 L 291.5 82 L 293.5 81 L 293.5 82 L 291 83.5 L 290 87 L 296 89.5 L 295 92.5 L 296 94.5 L 295.5 96 L 297.5 97 L 300.5 95 L 305.5 96 L 304.5 94 L 302.5 95 L 303.5 93 Q 305.8 93.8 305 91.5 L 305.5 89 Q 307.3 91.7 309 87.5 L 308 85 L 303.5 86 L 303 83.5 L 302 80 L 300 79.5 Q 309.3 80.3 314.5 77 L 319 79.5 Q 319.6 84.1 317 85.5 L 319.5 89 L 322 89.5 L 313.5 93 L 311.5 93 L 307 95.5 L 307.5 97 L 316.5 97 L 320.5 99 L 322.5 98 L 328.5 101 L 332.5 98 L 336 99.5 L 334 100 L 333 103.5 L 337 106.5 L 338.5 109 L 341 109.5 L 341 111.5 L 343.5 117 L 347.5 120 L 350.5 120 L 352 119.5 L 352.5 121 L 353 114.5 L 347 99.5 L 341 92 Q 338.3 93.1 339 90.5 L 331.5 80 L 327.5 77 L 320.5 76 L 315.5 72 L 310 71.5 L 315.5 71 L 317.5 71 Q 320.8 72.1 320 69.5 L 316.5 65 L 328 74 L 348 98.5 L 352 106.5 L 355 116.5 L 355 122.5 L 358 131.5 L 360 144.5 L 359 147.5 L 360 149.5 L 359 150.5 L 358 172.5 L 353 187.5 L 350 208.5 L 345 221.5 L 350 225.5 Q 353.7 229.8 352 239.5 L 350 246.5 L 351 247.5 L 352 264.5 L 348 279.5 Q 345.4 286.9 339.5 291 Q 334 291.5 332 295.5 L 323 325.5 Q 324.8 331.8 322 333.5 L 322 358.5 L 323 359.5 L 323 369.5 L 325 380.5 L 327 387.5 L 329.5 390 L 334.5 391 L 351.5 401 L 356.5 402 L 381.5 414 L 394.5 418 L 427.5 433 L 447.5 440 L 481.5 458 L 484.5 458 L 494 463 L 498.5 469 L 500 469.5 L 500 500 L 0.5 500 L 0 499.5 L 0 466.5 L 20.5 453 L 38.5 444 Q 58.6 437.1 75.5 427 L 91.5 422 L 102.5 415 L 136.5 403 L 143.5 398 L 152.5 396 L 172 383.5 L 173 379.5 L 173 359.5 L 172 358.5 L 171 337.5 Q 159.3 315 153 288 Q 144.1 286.8 140 279.5 L 135 264.5 L 135 257.5 L 133 249.5 L 133 228.5 Q 134.7 220.7 139.5 216 Q 142.3 216.6 141 210.5 L 140 209.5 L 140 201.5 L 138 196.5 L 138 190.5 L 136 187.5 L 136 181.5 Q 132.5 179.5 133 173.5 L 134 172.5 L 135 146.5 L 134 145.5 L 134 137.5 L 135 137.5 Q 133.9 140.8 136.5 140 L 139 138.5 L 139 143.5 L 136 147.5 L 135 166.5 L 136.5 172 L 138 171.5 L 137.5 174 L 136 173.5 L 138 178.5 Q 135.5 180 137 185.5 L 139.5 189 L 140 186.5 L 139 183 Q 141.7 184.1 141 181.5 L 143 177.5 L 140 171.5 L 140 165.5 L 141 164.5 L 142 151.5 L 141 148.5 Q 145.3 145.3 145 137.5 Q 143.8 134.8 142.5 137 L 140.5 138 L 141 136.5 L 140 133.5 L 142 133 Q 143.5 129.3 140.5 130 L 140.5 129 L 142.5 130 L 145.5 126 L 147.5 126 L 159.5 125 L 162 122.5 Q 160.5 118.1 163.5 119 L 167 116.5 L 168 114.5 L 167.5 113 L 170 111.5 L 169.5 110 L 171 110.5 L 172.5 108 Q 177.1 107.4 178.5 110 L 181.5 108 L 183.5 110 L 191.5 111 L 193.5 108 Q 195.5 112 203.5 110 Q 206.5 108.5 205 102.5 L 207.5 100 L 209.5 99 Q 211 101.5 212.5 98 L 216 97 L 216 95.5 L 207.5 87 L 206 87.5 L 206.5 86 L 198 83.5 L 201 83 L 201 81 Q 203.7 82.1 203 79.5 L 203.5 78 L 198 73.5 L 200 72.5 L 193.5 72 L 191.5 73 L 186.5 68 L 182.5 68 L 170.5 73 L 169.5 72 L 165.5 76 Q 155.8 80.3 149 87.5 L 150 90.5 L 146.5 92 Q 143.5 91.2 145 95 L 143 95 L 143 98.5 Q 140.8 99.8 142 104.5 L 143 106.5 L 142 106.5 L 140 96 Q 142.7 97.1 142 94.5 L 152.5 83 L 155 81.5 L 156.5 79 L 164 74.5 L 165.5 72 L 183.5 63 L 193.5 56 L 201.5 55 L 211.5 51 L 220.5 50 L 223.5 48 L 229.5 48 L 235.5 46 L 249.5 46 L 250.5 45 Z M 241 47 L 240 51 L 236 50 L 236 48 L 232 50 L 233 54 Q 232 56 231 54 L 226 56 L 223 60 L 214 62 L 212 65 Q 215 66 214 63 L 221 63 L 230 59 L 234 59 L 243 54 L 244 55 L 243 55 L 240 59 L 242 58 L 245 60 L 244 63 L 248 63 L 252 60 Q 253 56 251 57 L 248 52 L 246 52 L 249 48 L 241 47 Z M 194 58 L 185 64 Q 182 63 183 66 L 181 67 L 184 67 L 186 67 Q 188 68 187 66 L 194 63 L 195 61 L 198 59 L 194 58 Z M 222 71 L 218 73 Q 215 74 217 76 L 216 75 Q 213 74 214 77 L 207 80 L 206 83 L 208 85 Q 213 86 215 83 L 213 86 L 217 92 Q 220 93 218 95 L 220 97 L 225 95 L 227 96 L 229 95 L 228 94 L 229 92 L 229 94 Q 230 96 234 95 L 236 98 L 242 94 Q 245 95 243 90 L 240 89 Q 243 87 242 83 L 240 81 L 240 83 L 238 86 Q 235 85 236 88 L 230 89 L 230 85 L 232 85 L 235 80 L 242 77 L 242 75 L 239 76 Q 237 79 236 77 L 235 79 L 225 86 L 230 79 L 228 75 L 227 77 L 221 78 L 219 76 L 219 74 L 221 75 L 223 72 L 222 71 Z M 260 73 L 255 74 L 255 75 Q 262 74 261 77 Q 265 78 266 75 L 263 74 L 263 76 L 262 75 L 260 73 Z M 247 78 Q 247 81 245 80 Q 242 82 245 83 L 248 80 L 247 78 Z M 268 79 L 267 81 L 265 84 L 270 82 L 272 79 L 270 80 L 268 79 Z M 258 82 L 254 85 Q 255 87 252 86 L 252 88 L 250 88 L 248 92 L 249 94 L 249 93 L 258 85 Q 261 84 258 82 Z M 267 88 L 266 89 Q 260 87 261 91 L 259 90 L 258 92 L 256 93 L 252 98 L 255 97 L 257 98 L 252 99 Q 251 105 256 106 L 259 104 L 258 101 Q 257 96 260 95 Q 262 90 264 93 Q 266 90 271 90 Q 270 87 269 89 L 267 88 Z M 277 91 L 274 93 L 274 95 L 272 96 L 270 99 L 278 94 Q 279 90 277 91 Z M 284 94 L 283 95 Q 280 94 281 97 L 274 101 L 273 103 L 275 102 L 277 103 L 281 100 Q 283 101 282 99 L 285 96 L 288 97 L 289 95 L 288 95 L 284 94 Z M 328 102 L 328 106 L 330 105 L 332 106 L 333 106 L 332 104 L 328 102 Z M 289 103 L 285 105 L 284 107 L 289 105 L 289 103 Z M 314 105 Q 315 107 312 109 L 318 111 L 319 119 L 321 122 L 323 123 L 318 127 L 323 133 L 322 139 L 335 150 L 339 151 L 341 148 Q 341 141 338 139 Q 337 136 336 138 L 336 137 L 335 130 Q 333 125 328 125 L 327 123 L 329 122 L 331 118 L 324 113 L 322 114 Q 326 112 325 108 L 314 105 Z M 307 107 L 301 109 Q 296 107 297 111 L 299 110 L 301 111 L 305 109 L 308 110 L 310 110 L 307 107 Z M 333 155 L 332 161 L 334 172 L 336 171 Q 338 165 335 164 L 337 163 L 336 162 L 337 159 L 337 157 Q 336 154 335 156 L 333 155 Z M 141 191 Q 139 198 142 202 L 142 201 L 143 198 L 141 191 Z M 348 203 L 346 206 Q 344 212 348 211 L 348 203 Z M 194 212 L 192 214 L 194 214 Q 195 217 197 213 L 197 217 L 200 217 L 198 214 Q 199 210 194 212 Z "></path><path fill="rgb(118,97,90)" stroke="rgb(118,97,90)" stroke-width="0" opacity="0.9921568627450981" d="M 273.5 51 L 287.5 55 L 301.5 55 L 312 62.5 L 310.5 62 L 300.5 59 L 295.5 59 L 290.5 65 L 289 64.5 L 295 57 Q 289.8 56 287.5 59 L 285.5 55 L 273.5 52 L 273.5 51 Z "></path><path fill="rgb(118,97,90)" stroke="rgb(118,97,90)" stroke-width="0" opacity="0.9921568627450981" d="M 189.5 76 L 192 76.5 L 184.5 80 L 185.5 78 L 189.5 76 Z "></path><path fill="rgb(118,97,90)" stroke="rgb(118,97,90)" stroke-width="0" opacity="0.9921568627450981" d="M 159.5 87 L 160.5 89 L 162.5 89 L 164 89.5 L 161 94.5 L 161.5 96 L 156 98 L 154.5 102 L 154 99.5 L 159.5 87 Z "></path><path fill="rgb(118,97,90)" stroke="rgb(118,97,90)" stroke-width="0" opacity="0.9921568627450981" d="M 153 104 Q 157.1 102.3 156 106.5 Q 158.8 108.5 158 113 Q 155 112 156 115 L 153.5 115 L 152 115.5 L 151 112.5 L 152 108.5 Q 149.5 107 153 105.5 L 153 104 Z "></path><path fill="rgb(118,97,90)" stroke="rgb(118,97,90)" stroke-width="0" opacity="0.9921568627450981" d="M 145.5 113 L 146 116.5 L 145 119 L 140 121.5 L 138.5 125 L 138 123.5 L 145 115.5 L 145.5 113 Z "></path></svg>