<?xml version="1.0" encoding="UTF-8"?>
<!DOCTYPE svg PUBLIC "-//W3C//DTD SVG 1.1//EN" "http://www.w3.org/Graphics/SVG/1.1/DTD/svg11.dtd">
<svg xmlns="http://www.w3.org/2000/svg" version="1.1" width="256px" height="256px" style="shape-rendering:geometricPrecision; text-rendering:geometricPrecision; image-rendering:optimizeQuality; fill-rule:evenodd; clip-rule:evenodd" xmlns:xlink="http://www.w3.org/1999/xlink">
<g><path style="opacity:0.047" fill="#080403" d="M 90.5,6.5 C 111.931,3.79268 127.098,12.126 136,31.5C 141.606,52.6951 142.939,74.0284 140,95.5C 136.817,102.679 131.317,106.846 123.5,108C 92.2704,106.015 70.4371,119.182 58,147.5C 50.6427,180.285 62.1427,203.785 92.5,218C 133.68,231.579 169.514,223.079 200,192.5C 207.016,182.742 208.016,172.409 203,161.5C 191.22,140.054 174.053,124.554 151.5,115C 144.867,110.198 141.534,103.698 141.5,95.5C 145.617,73.9304 153.117,53.5971 164,34.5C 170.362,22.5709 180.195,18.0709 193.5,21C 218.263,35.4426 235.43,56.2759 245,83.5C 250.842,100.727 252.842,118.394 251,136.5C 247.73,149.886 239.896,153.719 227.5,148C 222.82,142.209 222.32,136.042 226,129.5C 226.938,95.9215 214.271,68.9215 188,48.5C 186.739,48.7591 185.739,49.4258 185,50.5C 177.088,63.97 171.754,78.3033 169,93.5C 194.333,106.833 213.667,126.167 227,151.5C 236.707,178.369 230.873,201.202 209.5,220C 170.524,250.809 127.524,257.809 80.5,241C 42.4687,222.781 25.9687,192.614 31,150.5C 40.9542,108.548 67.4542,86.0479 110.5,83C 112.676,82.8371 114.509,82.0037 116,80.5C 116.842,65.7398 114.842,51.4065 110,37.5C 107.309,34.0717 103.809,32.0717 99.5,31.5C 65.176,42.3243 42.676,64.991 32,99.5C 30.0976,107.052 28.931,114.718 28.5,122.5C 29.9731,128.419 30.4731,134.419 30,140.5C 28.15,146.344 24.15,149.011 18,148.5C 9.88729,148.059 5.22062,143.726 4,135.5C 0.921879,89.1663 17.7552,51.9996 54.5,24C 65.6523,16.2563 77.6523,10.4229 90.5,6.5 Z"/></g>
<g><path style="opacity:1" fill="#3e80fa" d="M 67.5,125.5 C 59.8333,125.5 52.1667,125.5 44.5,125.5C 44.5,124.5 44.5,123.5 44.5,122.5C 60.1834,98.6462 82.5167,86.1462 111.5,85C 113.78,84.7674 115.78,83.934 117.5,82.5C 118.726,68.3527 117.559,54.3527 114,40.5C 110.355,31.9246 103.855,28.4246 94.5,30C 55.2077,45.7459 32.541,74.5793 26.5,116.5C 24.6687,117.995 22.502,118.662 20,118.5C 15.8528,117.877 11.6861,117.544 7.5,117.5C 7.65266,111.155 7.98599,104.822 8.5,98.5C 16.8552,64.63 35.8552,38.4633 65.5,20C 73.4813,15.5088 81.8146,11.8422 90.5,9C 110.987,5.99043 125.487,13.8238 134,32.5C 139.055,51.8699 140.722,71.5366 139,91.5C 136.559,97.6076 132.392,102.108 126.5,105C 103.72,103.43 84.0529,110.263 67.5,125.5 Z"/></g>
<g><path style="opacity:1" fill="#f9a700" d="M 246.5,99.5 C 246.958,102.394 246.291,104.894 244.5,107C 239.5,108.07 234.5,108.737 229.5,109C 228.601,107.348 227.601,105.848 226.5,104.5C 221.203,82.0357 209.869,63.2024 192.5,48C 190.305,46.627 187.971,46.2937 185.5,47C 176.828,59.9951 170.661,74.1618 167,89.5C 166.333,91.5 166.333,93.5 167,95.5C 174.251,99.8749 181.418,104.375 188.5,109C 192,111.334 195,114.168 197.5,117.5C 198.171,118.847 198.171,120.014 197.5,121C 190.138,121.636 182.805,122.469 175.5,123.5C 174.151,123.154 172.817,122.821 171.5,122.5C 162.978,118.989 155.145,114.322 148,108.5C 144.669,102.582 143.669,96.2489 145,89.5C 150.023,68.0922 158.356,48.0922 170,29.5C 177.267,22.4169 185.767,20.5835 195.5,24C 222.594,42.356 239.594,67.5227 246.5,99.5 Z"/></g>
<g><path style="opacity:1" fill="#e9aa04" d="M 246.5,99.5 C 247.903,102.909 248.57,106.575 248.5,110.5C 248.5,115.833 248.5,121.167 248.5,126.5C 242.5,126.5 236.5,126.5 230.5,126.5C 230.715,128.179 230.048,129.179 228.5,129.5C 228.638,121.094 227.971,112.76 226.5,104.5C 227.601,105.848 228.601,107.348 229.5,109C 234.5,108.737 239.5,108.07 244.5,107C 246.291,104.894 246.958,102.394 246.5,99.5 Z"/></g>
<g><path style="opacity:1" fill="#3f86ef" d="M 8.5,98.5 C 7.98599,104.822 7.65266,111.155 7.5,117.5C 11.6861,117.544 15.8528,117.877 20,118.5C 22.502,118.662 24.6687,117.995 26.5,116.5C 26.5,117.833 26.5,119.167 26.5,120.5C 25.5233,123.287 25.19,126.287 25.5,129.5C 18.6229,129.403 11.9563,129.403 5.5,129.5C 4.93036,118.867 5.93036,108.534 8.5,98.5 Z"/></g>
<g><path style="opacity:1" fill="#e3ae07" d="M 197.5,117.5 C 200.075,118.568 202.242,120.235 204,122.5C 206.741,125.729 209.241,129.062 211.5,132.5C 210.866,133.947 209.699,134.613 208,134.5C 198.983,134.054 190.149,132.72 181.5,130.5C 177.854,128.183 174.52,125.516 171.5,122.5C 172.817,122.821 174.151,123.154 175.5,123.5C 182.805,122.469 190.138,121.636 197.5,121C 198.171,120.014 198.171,118.847 197.5,117.5 Z"/></g>
<g><path style="opacity:1" fill="#3f8ae8" d="M 44.5,122.5 C 44.5,123.5 44.5,124.5 44.5,125.5C 52.1667,125.5 59.8333,125.5 67.5,125.5C 66.5589,127.772 65.2255,129.772 63.5,131.5C 55.9353,133.138 48.2686,133.805 40.5,133.5C 40.5,132.167 40.5,130.833 40.5,129.5C 41.0787,126.669 42.412,124.336 44.5,122.5 Z"/></g>
<g><path style="opacity:1" fill="#d9ad08" d="M 248.5,110.5 C 249.657,118.656 249.823,126.99 249,135.5C 247.653,141.164 244.487,145.331 239.5,148C 226.252,147.681 222.586,141.515 228.5,129.5C 230.048,129.179 230.715,128.179 230.5,126.5C 236.5,126.5 242.5,126.5 248.5,126.5C 248.5,121.167 248.5,115.833 248.5,110.5 Z"/></g>
<g><path style="opacity:1" fill="#3e8fdb" d="M 40.5,129.5 C 40.5,130.833 40.5,132.167 40.5,133.5C 48.2686,133.805 55.9353,133.138 63.5,131.5C 61.9138,133.67 60.5804,136.004 59.5,138.5C 52.2125,138.898 45.0459,139.898 38,141.5C 37.5065,139.866 37.3398,138.199 37.5,136.5C 37.9348,133.843 38.9348,131.509 40.5,129.5 Z"/></g>
<g><path style="opacity:1" fill="#3f8ce2" d="M 26.5,120.5 C 26.307,124.566 26.6403,128.566 27.5,132.5C 27.5,134.5 27.5,136.5 27.5,138.5C 21.2053,139.459 14.872,140.125 8.5,140.5C 6.4893,137.131 5.4893,133.464 5.5,129.5C 11.9563,129.403 18.6229,129.403 25.5,129.5C 25.19,126.287 25.5233,123.287 26.5,120.5 Z"/></g>
<g><path style="opacity:1" fill="#d6b10a" d="M 181.5,130.5 C 190.149,132.72 198.983,134.054 208,134.5C 209.699,134.613 210.866,133.947 211.5,132.5C 215.237,136.302 218.237,140.635 220.5,145.5C 220.38,146.586 219.713,147.253 218.5,147.5C 208.715,146.057 199.381,143.39 190.5,139.5C 187.736,136.281 184.736,133.281 181.5,130.5 Z"/></g>
<g><path style="opacity:1" fill="#3c8cd2" d="M 27.5,132.5 C 29.6422,142.863 25.3089,147.363 14.5,146C 11.3928,145.294 9.39277,143.461 8.5,140.5C 14.872,140.125 21.2053,139.459 27.5,138.5C 27.5,136.5 27.5,134.5 27.5,132.5 Z"/></g>
<g><path style="opacity:1" fill="#3e96cf" d="M 37.5,136.5 C 37.3398,138.199 37.5065,139.866 38,141.5C 45.0459,139.898 52.2125,138.898 59.5,138.5C 58.7368,140.368 57.7368,142.035 56.5,143.5C 50.631,145.979 44.4643,147.646 38,148.5C 36.3189,148.392 35.1522,147.725 34.5,146.5C 34.7234,142.838 35.7234,139.505 37.5,136.5 Z"/></g>
<g><path style="opacity:1" fill="#3e9cc2" d="M 56.5,143.5 C 56.2785,146.067 55.6118,148.401 54.5,150.5C 47.3314,151.996 40.4981,154.33 34,157.5C 33.7679,156.263 33.2679,155.263 32.5,154.5C 32.5651,151.572 33.2318,148.905 34.5,146.5C 35.1522,147.725 36.3189,148.392 38,148.5C 44.4643,147.646 50.631,145.979 56.5,143.5 Z"/></g>
<g><path style="opacity:1" fill="#c8b40d" d="M 190.5,139.5 C 199.381,143.39 208.715,146.057 218.5,147.5C 219.713,147.253 220.38,146.586 220.5,145.5C 225.076,151.673 227.743,158.673 228.5,166.5C 228.663,168.857 228.497,171.19 228,173.5C 227.502,170.183 227.335,166.85 227.5,163.5C 220.186,161.673 213.019,159.34 206,156.5C 204.97,156.836 204.47,157.503 204.5,158.5C 200.089,152.027 195.423,145.694 190.5,139.5 Z"/></g>
<g><path style="opacity:1" fill="#3fa4b8" d="M 54.5,150.5 C 54.634,152.292 54.3007,153.958 53.5,155.5C 46.9707,158.347 40.304,161.014 33.5,163.5C 32.5481,161.955 32.2148,160.288 32.5,158.5C 32.5,157.167 32.5,155.833 32.5,154.5C 33.2679,155.263 33.7679,156.263 34,157.5C 40.4981,154.33 47.3314,151.996 54.5,150.5 Z"/></g>
<g><path style="opacity:1" fill="#3da6a6" d="M 53.5,155.5 C 53.5,160.167 53.5,164.833 53.5,169.5C 52.6862,167.369 52.1862,165.036 52,162.5C 45.2042,165.48 38.7042,168.813 32.5,172.5C 31.2027,167.733 31.2027,163.066 32.5,158.5C 32.2148,160.288 32.5481,161.955 33.5,163.5C 40.304,161.014 46.9707,158.347 53.5,155.5 Z"/></g>
<g><path style="opacity:1" fill="#bcb910" d="M 228.5,166.5 C 229.804,172.067 229.804,177.734 228.5,183.5C 222.503,179.697 216.337,176.03 210,172.5C 209.802,174.382 209.302,176.048 208.5,177.5C 208.344,170.89 207.011,164.557 204.5,158.5C 204.47,157.503 204.97,156.836 206,156.5C 213.019,159.34 220.186,161.673 227.5,163.5C 227.335,166.85 227.502,170.183 228,173.5C 228.497,171.19 228.663,168.857 228.5,166.5 Z"/></g>
<g><path style="opacity:1" fill="#3eae9c" d="M 53.5,169.5 C 53.5,170.833 53.5,172.167 53.5,173.5C 52.7321,172.737 52.2321,171.737 52,170.5C 47.7,175.247 42.5333,178.914 36.5,181.5C 36.1667,182.167 35.8333,182.833 35.5,183.5C 36.7951,186.716 37.4618,190.049 37.5,193.5C 34.443,186.934 32.7763,179.934 32.5,172.5C 38.7042,168.813 45.2042,165.48 52,162.5C 52.1862,165.036 52.6862,167.369 53.5,169.5 Z"/></g>
<g><path style="opacity:1" fill="#3fb692" d="M 53.5,173.5 C 54.4822,176.763 55.1489,180.097 55.5,183.5C 54.1266,183.343 52.7932,183.51 51.5,184C 48.1134,187.053 44.4467,189.72 40.5,192C 39.5769,194.041 39.2436,196.208 39.5,198.5C 38.4625,197.07 37.7959,195.403 37.5,193.5C 37.4618,190.049 36.7951,186.716 35.5,183.5C 35.8333,182.833 36.1667,182.167 36.5,181.5C 42.5333,178.914 47.7,175.247 52,170.5C 52.2321,171.737 52.7321,172.737 53.5,173.5 Z"/></g>
<g><path style="opacity:1" fill="#3ebb85" d="M 55.5,183.5 C 57.4031,186.979 59.0698,190.646 60.5,194.5C 58.5976,193.489 56.5976,193.322 54.5,194C 51.7031,197.799 48.5364,201.299 45,204.5C 44.805,205.819 44.9717,207.153 45.5,208.5C 43.0002,205.506 41.0002,202.173 39.5,198.5C 39.2436,196.208 39.5769,194.041 40.5,192C 44.4467,189.72 48.1134,187.053 51.5,184C 52.7932,183.51 54.1266,183.343 55.5,183.5 Z"/></g>
<g><path style="opacity:1" fill="#a8be15" d="M 228.5,183.5 C 227.123,192.666 223.456,200.666 217.5,207.5C 217.649,206.448 217.483,205.448 217,204.5C 212.667,200.833 208.333,197.167 204,193.5C 203.329,194.252 202.496,194.586 201.5,194.5C 205.223,189.314 207.556,183.647 208.5,177.5C 209.302,176.048 209.802,174.382 210,172.5C 216.337,176.03 222.503,179.697 228.5,183.5 Z"/></g>
<g><path style="opacity:1" fill="#3ec178" d="M 60.5,194.5 C 62.8532,196.86 64.8532,199.527 66.5,202.5C 65.448,202.351 64.448,202.517 63.5,203C 59.5547,207.103 56.2214,211.603 53.5,216.5C 53.8457,217.849 54.179,219.183 54.5,220.5C 50.7376,217.071 47.7376,213.071 45.5,208.5C 44.9717,207.153 44.805,205.819 45,204.5C 48.5364,201.299 51.7031,197.799 54.5,194C 56.5976,193.322 58.5976,193.489 60.5,194.5 Z"/></g>
<g><path style="opacity:1" fill="#96c41a" d="M 217.5,207.5 C 213.129,212.873 208.129,217.539 202.5,221.5C 202.657,220.127 202.49,218.793 202,217.5C 198.761,214.017 195.761,210.35 193,206.5C 191.586,205.587 190.086,205.587 188.5,206.5C 192.807,202.528 197.141,198.528 201.5,194.5C 202.496,194.586 203.329,194.252 204,193.5C 208.333,197.167 212.667,200.833 217,204.5C 217.483,205.448 217.649,206.448 217.5,207.5 Z"/></g>
<g><path style="opacity:1" fill="#3fc76a" d="M 66.5,202.5 C 71.1793,207.178 76.1793,211.511 81.5,215.5C 79.5082,215.672 77.8415,215.005 76.5,213.5C 73.0005,217.829 70.0005,222.496 67.5,227.5C 68.5272,229.184 69.5272,230.851 70.5,232.5C 64.3128,229.647 58.9795,225.647 54.5,220.5C 54.179,219.183 53.8457,217.849 53.5,216.5C 56.2214,211.603 59.5547,207.103 63.5,203C 64.448,202.517 65.448,202.351 66.5,202.5 Z"/></g>
<g><path style="opacity:1" fill="#3fce5b" d="M 81.5,215.5 C 84.232,216.866 86.8987,218.199 89.5,219.5C 88.325,219.281 87.325,219.614 86.5,220.5C 84.1108,225.853 81.4441,231.02 78.5,236C 79.056,236.383 79.3893,236.883 79.5,237.5C 76.0078,236.59 73.0078,234.924 70.5,232.5C 69.5272,230.851 68.5272,229.184 67.5,227.5C 70.0005,222.496 73.0005,217.829 76.5,213.5C 77.8415,215.005 79.5082,215.672 81.5,215.5 Z"/></g>
<g><path style="opacity:1" fill="#7eca23" d="M 202.5,221.5 C 196.524,226.826 189.857,231.159 182.5,234.5C 181.178,234.67 180.011,234.337 179,233.5C 176.667,228.833 174.333,224.167 172,219.5C 170.989,218.663 169.822,218.33 168.5,218.5C 175.406,214.933 182.073,210.933 188.5,206.5C 190.086,205.587 191.586,205.587 193,206.5C 195.761,210.35 198.761,214.017 202,217.5C 202.49,218.793 202.657,220.127 202.5,221.5 Z"/></g>
<g><path style="opacity:1" fill="#65ce2c" d="M 168.5,218.5 C 169.822,218.33 170.989,218.663 172,219.5C 174.333,224.167 176.667,228.833 179,233.5C 180.011,234.337 181.178,234.67 182.5,234.5C 170.616,240.682 157.949,244.682 144.5,246.5C 146.672,245.872 148.338,244.538 149.5,242.5C 148.283,237.195 147.283,231.861 146.5,226.5C 137.681,227.689 129.014,227.689 120.5,226.5C 137.092,227.273 153.092,224.606 168.5,218.5 Z"/></g>
<g><path style="opacity:1" fill="#41cf47" d="M 89.5,219.5 C 98.7544,222.612 108.088,224.945 117.5,226.5C 115.064,226.317 112.897,226.984 111,228.5C 110.274,233.187 109.441,237.854 108.5,242.5C 108.833,243.167 109.167,243.833 109.5,244.5C 120.41,246.207 131.41,246.873 142.5,246.5C 120.655,249.57 99.6551,246.57 79.5,237.5C 79.3893,236.883 79.056,236.383 78.5,236C 81.4441,231.02 84.1108,225.853 86.5,220.5C 87.325,219.614 88.325,219.281 89.5,219.5 Z"/></g>
<g><path style="opacity:1" fill="#4fd53c" d="M 117.5,226.5 C 118.5,226.5 119.5,226.5 120.5,226.5C 129.014,227.689 137.681,227.689 146.5,226.5C 147.283,231.861 148.283,237.195 149.5,242.5C 148.338,244.538 146.672,245.872 144.5,246.5C 143.833,246.5 143.167,246.5 142.5,246.5C 131.41,246.873 120.41,246.207 109.5,244.5C 109.167,243.833 108.833,243.167 108.5,242.5C 109.441,237.854 110.274,233.187 111,228.5C 112.897,226.984 115.064,226.317 117.5,226.5 Z"/></g>
</svg>
